<?xml version="1.0" encoding="UTF-8" standalone="no"?>
<svg
   xmlns:dc="http://purl.org/dc/elements/1.1/"
   xmlns:cc="http://creativecommons.org/ns#"
   xmlns:rdf="http://www.w3.org/1999/02/22-rdf-syntax-ns#"
   xmlns:svg="http://www.w3.org/2000/svg"
   xmlns="http://www.w3.org/2000/svg"
   viewBox="0 0 245.33333 249.33333"
   height="249.33333"
   width="245.33333"
   xml:space="preserve"
   id="svg2"
   version="1.1"><metadata
     id="metadata8"><rdf:RDF><cc:Work
         rdf:about=""><dc:format>image/svg+xml</dc:format><dc:type
           rdf:resource="http://purl.org/dc/dcmitype/StillImage" /></cc:Work></rdf:RDF></metadata><defs
     id="defs6" /><g
     transform="matrix(1.3333333,0,0,-1.3333333,0,249.33333)"
     id="g10"><g
       transform="scale(0.1)"
       id="g12"><path
         id="path14"
         style="fill:#001e3d;fill-opacity:1;fill-rule:evenodd;stroke:none"
         d="m 844.84,103.91 38.48,44.488 h -2.5 c -5.308,1.012 -10.98,2.192 -16.992,3.512 -3.008,0 -6.168,0.32 -9.488,0.981 -3.012,0.66 -6.18,1.371 -9.5,2.031 -6.68,1.328 -13.668,2.808 -21.012,4.488 -6.988,2 -14.34,3.988 -21.988,5.981 -8.012,2.339 -16.02,4.839 -24.031,7.5 -32.649,10.347 -67.297,25.859 -103.981,46.519 -36.68,20.981 -72.348,47.82 -106.988,80.512 -4.692,3.988 -9.031,8.168 -13.012,12.5 -4.34,3.988 -8.519,8.316 -12.5,12.969 -3.988,4.339 -8.168,8.871 -12.5,13.519 -3.988,4.641 -7.848,9.488 -11.488,14.488 -8,9.692 -15.66,19.493 -23,29.493 -3.36,5.347 -6.84,10.66 -10.512,16.019 l -5.508,8 -5,8.012 c -26.992,44.648 -47.5,92.808 -61.48,144.488 -1.328,6.328 -3.012,12.82 -5,19.5 -1.328,6.68 -2.66,13.32 -4.031,20 l -1.989,10 -0.98,9.488 c -1.36,6.684 -2.34,13.364 -3,20 l -1.531,20.512 c -0.661,3 -0.969,6.172 -0.969,9.488 l -1.02,19.024 v 31.488 c 1.328,26.988 4.18,53.672 8.52,80 1.32,6.68 2.648,13.16 3.98,19.488 l 2.5,10 1.989,9.493 c 2.031,6.679 3.871,13.16 5.511,19.531 1.989,5.976 4.02,12.148 6.02,18.476 16.988,50 40,95.352 68.98,136.012 l 5,8.01 5.508,6.99 c 3.981,5 7.852,9.85 11.481,14.5 7.703,9.64 15.511,18.67 23.519,26.99 3.981,4.33 8.16,8.67 12.5,13.01 3.672,4.33 7.652,8.32 11.992,11.99 4.34,4.02 8.668,8.01 13.008,11.99 3.981,4.02 8.16,7.7 12.5,11.02 35.352,28.67 70.512,51.48 105.512,68.51 35.308,17.31 68.32,29.65 98.98,36.99 0.66,0 1.168,0.16 1.52,0.51 l 28.48,-102.5 186.99,217.97 -272.501,92.5 18.011,-66.99 c -0.98,-0.31 -2.34,-0.82 -3.98,-1.49 -38.68,-12.34 -79.5,-30.5 -122.5,-54.49 -43.36,-24.33 -85.668,-55.51 -127,-93.51 -5.352,-5 -10.352,-10 -15,-15 -5,-5 -10,-10.16 -15,-15.51 -5,-5.31 -10,-10.67 -15,-15.98 -4.328,-5.35 -9.02,-10.86 -14.02,-16.52 -8.98,-11.33 -18.011,-23.01 -26.992,-35 -3.988,-6.33 -8.168,-12.5 -12.5,-18.48 -1.988,-3.01 -3.988,-6.17 -6.019,-9.53 -1.989,-3.32 -3.981,-6.48 -5.969,-9.49 -32,-52.35 -56.68,-109.138 -74.031,-170.509 -1.637,-7.661 -3.469,-15.313 -5.469,-22.969 -1.68,-7.692 -3.16,-15.352 -4.531,-23.012 l -2.969,-11.988 -1.52,-12.031 c -1.332,-7.661 -2.5,-15.469 -3.48,-23.481 -3.36,-31.68 -4.84,-63.512 -4.531,-95.5 l 1.531,-23.012 0.5,-5.507 c 0,-1.641 0.16,-3.481 0.469,-5.469 l 2.031,-25 c 0.32,-4.024 0.82,-8.012 1.488,-12.031 1.332,-7.661 2.652,-15.469 3.981,-23.481 1.371,-7.34 2.851,-15 4.531,-23 l 2.5,-11.488 2.969,-11.524 c 1.679,-7.347 3.671,-14.847 6.019,-22.5 2.344,-7.347 4.652,-14.847 6.992,-22.5 19.692,-59.339 46.52,-113.32 80.508,-161.988 l 6.481,-8.988 6.531,-8.512 c 4.332,-6.019 8.672,-11.84 13,-17.5 9.34,-11.332 18.64,-22.148 27.969,-32.5 4.691,-5 9.531,-10.16 14.531,-15.512 l 14.5,-13.988 c 5,-5 10,-9.68 15,-14.019 5,-4.653 10,-9.141 15,-13.481 41.64,-34.332 83.469,-61.68 125.5,-81.988 41.64,-20.66 80.82,-35.512 117.5,-44.531 8.988,-2.661 17.82,-5 26.488,-6.993 8.32,-1.328 16.481,-3.007 24.492,-5 8.008,-0.976 15.66,-1.988 23.008,-3.007 2.652,-0.661 5.512,-1.129 8.512,-1.481" /><path
         id="path16"
         style="fill:#0066cc;fill-opacity:1;fill-rule:evenodd;stroke:none"
         d="m 1588.83,718.91 -1.49,23.512 v 5.469 c 0,1.679 -0.19,3.519 -0.5,5.507 l -1.02,12.5 -1.48,12.5 c -0.36,4.024 -0.86,7.852 -1.53,11.524 l -3.47,23.476 c -1.33,8.012 -2.86,15.864 -4.5,23.512 l -2.5,10.981 -3,12.031 c -2,7.308 -4.03,14.808 -6.02,22.5 -2.34,7.308 -4.65,14.808 -6.99,22.5 -20,59.34 -46.99,113.318 -81.02,161.988 l -6.48,8.99 -6.02,8.51 c -4.65,5.98 -9.14,11.84 -13.47,17.5 -9.03,11.33 -18.17,22 -27.5,32 -5,5.66 -9.85,10.82 -14.5,15.5 -5,5 -10,10 -15,15 -4.68,4.65 -9.53,9.34 -14.53,13.99 -5.31,4.33 -10.47,8.67 -15.47,13.01 -41.36,33.98 -83,61.32 -125,81.99 -42.03,20.66 -81.17,35.66 -117.5,45 -9.02,2.34 -17.85,4.33 -26.52,6.01 -8.67,2 -16.84,3.68 -24.49,5 -8.01,1.64 -15.67,2.82 -23.01,3.48 -3.01,0.66 -5.82,1.17 -8.48,1.52 l -38.508,-44.49 c 0.656,-0.35 1.328,-0.51 1.988,-0.51 5.35,-1.01 11.02,-1.83 16.99,-2.5 3.36,-0.35 6.53,-0.86 9.53,-1.52 3.32,-0.66 6.64,-1.48 10,-2.5 6.64,-0.98 13.48,-2.5 20.47,-4.49 7.35,-1.64 14.85,-3.48 22.5,-5.51 7.7,-2.3 15.51,-4.8 23.52,-7.5 32.65,-10.31 67.34,-25.82 103.98,-46.48 36.68,-21.02 72.5,-47.86 107.5,-80.51 4.34,-3.67 8.67,-7.81 13.01,-12.5 4.02,-3.99 8.16,-8.32 12.5,-13.01 3.67,-4.34 7.66,-8.83 11.99,-13.48 4.34,-4.68 8.36,-9.49 12.03,-14.49 7.97,-9.69 15.47,-19.53 22.5,-29.53 3.64,-5.66 7.31,-10.98 10.98,-15.98 l 10,-16.01 c 26.99,-44.65 47.5,-92.81 61.52,-144.49 2,-6.68 3.64,-13.172 5,-19.5 1.64,-6.68 2.97,-13.359 3.99,-20 l 1.99,-9.488 1.52,-10 c 0.98,-6.684 2,-13.363 2.97,-20 l 1.53,-20 c 0.31,-3.363 0.5,-6.684 0.5,-10 l 0.47,-9.531 0.51,-10 V 718.91 c -0.98,-26.68 -3.83,-53.172 -8.48,-79.5 -1.36,-6.68 -2.69,-13.359 -4.02,-20 l -1.99,-9.488 -2.5,-9.531 c -1.99,-6.641 -3.83,-12.969 -5.51,-18.981 -1.64,-6.68 -3.67,-13.012 -5.98,-18.988 -17.03,-50 -39.84,-95.352 -68.51,-136.012 l -5.51,-8.012 -5.51,-6.988 c -3.63,-5 -7.3,-9.851 -10.97,-14.5 -7.66,-9.68 -15.51,-18.82 -23.52,-27.5 -3.98,-4.019 -8.16,-8.16 -12.5,-12.5 -3.98,-4.332 -8.16,-8.359 -12.5,-11.988 -3.98,-4.332 -8.16,-8.363 -12.5,-12.031 -4.34,-3.629 -8.67,-7.301 -13.01,-10.981 -35,-28.672 -70.15,-51.519 -105.47,-68.512 -35.35,-16.988 -68.36,-29.339 -99.02,-36.988 -0.31,-0.359 -0.82,-0.512 -1.48,-0.512 L 1061.33,318.91 873.828,99.9219 1146.84,7.89063 1128.32,74.9219 c 1.33,0.3086 2.85,0.8164 4.49,1.4883 38.67,11.9882 79.69,29.9998 123.01,53.9808 43.01,24.687 85.16,56.019 126.52,94.019 5.32,5 10.32,10 15,15 5.32,4.649 10.32,9.852 15,15.512 4.65,5 9.5,10.156 14.5,15.469 4.64,5.66 9.33,11.371 13.98,17.031 9.34,11.328 18.36,23.168 26.99,35.469 4.03,6.019 8.17,12.187 12.5,18.519 2.03,2.649 4.18,5.66 6.53,8.981 1.99,3.359 3.82,6.519 5.5,9.531 32.66,52.308 57.31,109.137 73.99,170.469 1.99,7.699 3.98,15.347 6.01,23.007 1.64,7.653 3.32,15.512 5,23.512 l 2,11.488 1.99,11.524 c 1.01,8.316 1.99,16.328 3.01,23.988 3.98,31.68 5.5,63.32 4.49,95" /><path
         id="path18"
         style="fill:#00a6ff;fill-opacity:1;fill-rule:evenodd;stroke:none"
         d="m 1297.81,739.922 c -2.3,110 -19.49,211.129 -51.48,303.478 40.35,13.36 78.16,29.33 113.51,48.01 -2.34,2.65 -4.68,5.35 -7.03,8 -4.33,4.65 -8.32,9.14 -11.99,13.48 -3.01,3.36 -5.98,6.52 -8.98,9.53 -31.02,-15.66 -64.5,-29.18 -100.51,-40.51 -10.35,25 -21.84,48.48 -34.49,70.51 -24.69,44.34 -52.19,80.98 -82.5,110 -3.68,0.98 -7.19,1.99 -10.51,2.97 -8.01,3.01 -15.82,5.66 -23.52,8.01 -7.65,1.68 -15.15,3.51 -22.5,5.51 -6.99,1.68 -13.83,3.16 -20.47,4.49 -3.36,0.66 -6.68,1.33 -10,1.99 -3,0.66 -6.17,1.17 -9.53,1.52 -5.97,0.98 -11.64,1.84 -16.99,2.5 -0.66,0.32 -1.332,0.51 -1.988,0.51 l -3.012,-3.51 c 80.66,-29.34 145.35,-101.49 194.02,-216.49 -71.68,-19.02 -147.85,-29.33 -228.512,-31.01 v 207.5 l -41.019,-48.01 v -159.49 c -80.661,1.68 -156.829,11.99 -228.469,31.01 25.969,61.99 57.808,112.31 95.5,150.98 -24.328,-6.33 -50,-15.51 -77.031,-27.5 -8.981,-12.66 -17.5,-26.33 -25.469,-40.98 -12.692,-22.03 -24.18,-45.51 -34.531,-70.51 -25,8.01 -48.981,17.15 -71.989,27.5 -1.64,-1.32 -3.32,-2.65 -5,-4.02 -3.98,-3.63 -8.16,-7.66 -12.5,-11.99 -4.34,-3.67 -8.48,-7.66 -12.5,-11.99 l -2.5,-2 c 28.668,-13.67 58.668,-25.66 90,-36.01 C 603.48,951.051 586.172,849.922 583.828,739.922 H 394.84 c -0.66,-7.031 -1.168,-13.871 -1.52,-20.512 v -20.5 H 583.828 C 586.172,588.551 603.48,487.422 635.82,395.391 595.16,381.762 557.34,365.59 522.34,346.91 c 2,-2.648 4.14,-5.351 6.488,-8 4.332,-4.34 8.32,-8.832 11.992,-13.519 3.008,-3.321 6.02,-6.481 9.02,-9.493 31.332,15.661 64.808,29.18 100.469,40.512 10.351,-24.34 21.839,-47.859 34.531,-70.512 24.648,-43.988 52.308,-80.507 82.969,-109.488 3.363,-1.332 6.679,-2.5 10,-3.519 8.011,-2.661 16.019,-5.161 24.031,-7.5 7.34,-1.993 14.64,-3.981 21.988,-5.981 6.992,-1.68 13.832,-3 20.512,-4.019 3.672,-0.981 6.988,-1.84 10,-2.5 3.32,-0.313 6.48,-0.661 9.488,-0.981 6.012,-1.32 11.684,-2.34 16.992,-3 0.66,-0.359 1.52,-0.512 2.5,-0.512 l 2.5,3.512 c -80.308,29.34 -145,101.641 -193.98,217 71.988,18.668 148.16,28.981 228.469,31.012 v -207.5 l 41.019,47.5 v 160 c 80.662,-2.031 156.832,-12.344 228.512,-31.012 -26.01,-62 -57.69,-112.5 -95,-151.488 23.99,6.637 49.65,15.816 77,27.5 8.67,12.969 16.99,26.637 25,40.976 12.65,22.34 24.14,45.864 34.49,70.512 25,-8.012 49.18,-17.148 72.5,-27.5 1.33,1.68 2.85,3 4.49,3.981 4.02,4.019 8.16,8.007 12.5,12.031 4.34,3.988 8.52,7.969 12.5,11.988 0.66,0.981 1.52,1.84 2.5,2.5 -28.32,13.32 -58.16,25.32 -89.49,35.981 31.99,92.031 49.18,193.16 51.48,303.519 h 189.03 c 0.66,6.68 1.17,13.512 1.48,20.5 v 20.512 h -190.51" /><path
         id="path20"
         style="fill:#ffffff;fill-opacity:1;fill-rule:evenodd;stroke:none"
         d="m 1070.08,804.609 h -18.01 v 38.711 c -9.61,5.121 -19.88,9.059 -30.82,11.91 -10.98,2.86 -22.148,4.301 -33.52,4.301 -19.531,0 -37.89,-3.832 -55.152,-11.48 -17.226,-7.66 -32.308,-18.012 -45.199,-31.063 -12.93,-13.039 -23.039,-28.277 -30.391,-45.656 -7.34,-17.422 -11.008,-36.023 -11.008,-55.82 0,-19.492 3.668,-37.852 11.008,-55.121 7.352,-17.231 17.461,-32.301 30.391,-45.231 12.891,-12.89 27.82,-23.09 44.769,-30.59 16.954,-7.5 35.153,-11.25 54.692,-11.25 13.47,0 26.25,1.719 38.24,5.2 11.99,3.429 23.4,8.32 34.18,14.601 l 10.35,-15.312 c -11.99,-6.868 -24.81,-12.379 -38.48,-16.399 -13.63,-4.07 -28.12,-6.101 -43.4,-6.101 -22.218,0 -43.082,4.222 -62.57,12.621 -19.5,8.398 -36.531,19.879 -51.058,34.41 -14.571,14.57 -26.012,31.57 -34.454,51.101 -8.398,19.489 -12.578,40.348 -12.578,62.539 0,22.18 4.18,43.122 12.578,62.77 8.442,19.648 19.883,36.762 34.454,51.289 14.527,14.57 31.558,26.09 51.058,34.652 19.488,8.547 40.352,12.848 62.57,12.848 15.28,0 29.77,-1.949 43.4,-5.859 13.67,-3.91 26.64,-9.45 38.95,-16.641 z" /><path
         id="path22"
         style="fill:#000333;fill-opacity:1;fill-rule:nonzero;stroke:none"
         d="m 112.891,1478.83 c -12.27,-2.42 -23.3207,-6.49 -33.1215,-12.19 C 70,1460.9 61.4492,1453.4 54.1406,1444.14 40,1426.52 34.1016,1407.62 36.4805,1387.42 c 2.4297,-20.12 12.6601,-37.42 30.789,-51.87 17.4219,-13.99 36.0895,-20.12 56.0895,-18.44 20.082,1.76 36.719,10.82 49.84,27.19 7.582,9.57 13.172,20.04 16.723,31.4 3.519,11.33 5.039,23.75 4.527,37.19 l 29.852,-23.75 c -0.551,-11.25 -2.93,-22.03 -7.192,-32.34 -4.179,-10.32 -10.121,-20.28 -17.808,-29.85 -9.922,-12.42 -21.102,-22.26 -33.602,-29.53 -12.418,-7.3 -25.777,-11.8 -40.148,-13.44 -13.949,-1.68 -27.8518,-0.43 -41.7229,3.75 -13.9492,4.15 -26.8789,10.98 -38.75,20.47 -11.8789,9.46 -21.289,20.51 -28.2773,33.13 -7.07033,12.58 -11.28908,26.09 -12.66017,40.47 -1.5625,14.37 -0.19141,28.36 4.05859,42.03 4.30078,13.75 11.21098,26.6 20.78128,38.59 7.6211,9.57 16.25,17.54 25.9414,23.91 9.6094,6.44 20.4297,11.48 32.5,15.15 z" /><path
         id="path24"
         style="fill:#000333;fill-opacity:1;fill-rule:nonzero;stroke:none"
         d="m 302.578,1526.76 c -7.93,9.45 -17.777,14.92 -29.527,16.4 -11.68,1.45 -21.961,-1.56 -30.781,-9.06 -8.829,-7.42 -13.598,-17.03 -14.219,-28.9 -0.629,-11.8 3.039,-22.43 10.929,-31.88 8.051,-9.61 17.899,-15.12 29.692,-16.56 11.758,-1.37 22.066,1.64 30.937,9.06 8.75,7.38 13.442,16.95 14.063,28.75 0.629,11.88 -3.082,22.58 -11.094,32.19 z m -88.437,-74.06 c -6.332,7.5 -10.942,15.78 -13.75,24.84 -2.813,9.14 -3.75,18.59 -2.813,28.28 1.051,9.45 3.871,18.48 8.442,27.03 4.601,8.52 10.621,15.94 18.121,22.19 7.808,6.56 16.25,11.33 25.308,14.37 9.071,3.01 18.52,4.07 28.442,3.13 10,-0.63 19.14,-3.09 27.5,-7.34 8.437,-4.3 15.699,-10.08 21.879,-17.35 6.32,-7.5 10.929,-15.78 13.75,-24.84 2.808,-8.99 3.671,-18.28 2.652,-27.97 -1.051,-10.24 -3.871,-19.61 -8.442,-28.13 -4.492,-8.55 -10.539,-16.01 -18.121,-22.34 -7.5,-6.25 -15.859,-10.9 -25,-13.91 -9.179,-3.04 -18.711,-4.14 -28.589,-3.28 -9.93,0.82 -18.989,3.36 -27.348,7.66 -8.32,4.26 -15.66,10.16 -22.031,17.66 z" /><path
         id="path26"
         style="fill:#000333;fill-opacity:1;fill-rule:nonzero;stroke:none"
         d="m 447.539,1621.21 c -6.988,12.07 -15.238,19.84 -24.687,23.28 -9.372,3.52 -19.141,2.39 -29.223,-3.44 -10,-5.74 -15.859,-13.75 -17.649,-24.06 -1.761,-10.23 0.899,-21.48 7.969,-33.75 7.071,-12.3 15.313,-20.23 24.68,-23.75 9.383,-3.55 19.141,-2.34 29.383,3.6 9.566,5.5 15.226,13.63 17.027,24.37 1.871,10.7 -0.629,21.95 -7.5,33.75 z m 55.621,-36.41 c 13.012,-22.73 17.66,-41.32 13.91,-55.78 -3.672,-14.49 -16.211,-27.89 -37.66,-40.31 -16.172,-9.26 -30.93,-13.28 -44.371,-12.03 -13.437,1.17 -23.519,7.3 -30.16,18.44 l 28.601,16.56 c 3.2,-4.69 7.692,-7.15 13.43,-7.34 5.711,-0.24 12.43,1.91 20.16,6.4 11.328,6.56 18.051,13.79 20.16,21.72 2.18,7.89 -0.082,17.7 -6.718,29.38 l -8.442,15.62 c -0.941,-9.49 -3.672,-17.66 -8.121,-24.53 -4.5,-6.88 -10.859,-12.66 -19.07,-17.34 -16.481,-9.5 -32.649,-11.37 -48.59,-5.63 -15.859,5.7 -29.379,18.36 -40.629,37.97 -10.699,18.52 -14.531,36.29 -11.398,53.28 3.039,16.95 12.34,29.92 27.968,38.91 9.45,5.5 18.668,8.2 27.649,8.12 9.07,-0.12 17.269,-2.93 24.691,-8.44 l -10.941,18.91 26.57,15.16 z" /><path
         id="path28"
         style="fill:#000333;fill-opacity:1;fill-rule:nonzero;stroke:none"
         d="m 545.98,1595.78 -45.468,126.25 27.187,9.85 7.5,-20.47 c 2.692,10.62 7.18,19.29 13.43,26.09 6.332,6.88 15.082,12.27 26.25,16.25 9.461,3.44 18.051,4.84 25.781,4.22 7.82,-0.55 14.57,-2.97 20.32,-7.35 3.43,-2.81 6.442,-6.36 9.059,-10.62 2.691,-4.3 6.133,-12.19 10.313,-23.75 l 27.5,-76.56 -29.063,-10.47 -23.277,64.84 c -6.063,16.64 -12.114,26.96 -18.133,30.94 -5.93,3.95 -14.059,4.06 -24.367,0.31 -6.801,-2.42 -12.422,-5.78 -16.883,-10.15 -4.488,-4.38 -7.34,-9.38 -8.59,-15 -1.059,-3.68 -1.168,-8.05 -0.309,-13.13 0.821,-5 3.122,-12.73 6.872,-23.12 l 20.777,-57.66 z" /><path
         id="path30"
         style="fill:#000333;fill-opacity:1;fill-rule:nonzero;stroke:none"
         d="m 664.301,1835.31 c -1.141,5.08 -0.199,9.85 2.808,14.22 2.93,4.45 6.95,7.27 12.032,8.44 5.308,1.13 10.16,0.31 14.531,-2.5 4.379,-2.74 7.109,-6.72 8.277,-12.03 1.141,-5.32 0.321,-10.24 -2.5,-14.69 -2.73,-4.37 -6.719,-7.15 -12.027,-8.28 -5.082,-1.17 -9.922,-0.27 -14.531,2.65 -4.571,3.01 -7.422,7.08 -8.59,12.19 z m 45.308,-187.03 -28.75,131.1 30,6.56 28.75,-131.1 z" /><path
         id="path32"
         style="fill:#000333;fill-opacity:1;fill-rule:nonzero;stroke:none"
         d="m 789.691,1663.71 -13.91,106.41 -23.121,-3.13 -3.601,26.72 23.132,3.13 -6.57,50.31 30.629,3.9 6.559,-50.31 23.132,3.13 3.59,-26.72 -23.121,-3.13 13.899,-106.4 z" /><path
         id="path34"
         style="fill:#000333;fill-opacity:1;fill-rule:nonzero;stroke:none"
         d="m 975.512,1740.55 c 0,12.38 -4.032,22.89 -12.032,31.56 -7.929,8.63 -17.66,13.01 -29.218,13.12 -11.563,0 -21.41,-4.33 -29.532,-12.96 -8.128,-8.68 -12.191,-19.18 -12.191,-31.57 0,-12.5 3.981,-23.08 12.031,-31.72 8.008,-8.67 17.809,-12.96 29.379,-12.96 11.442,-0.12 21.25,4.14 29.371,12.81 8.129,8.63 12.192,19.22 12.192,31.72 z m -115.313,0.62 c 0,9.77 1.871,19.06 5.621,27.81 3.75,8.75 9.102,16.45 16.09,23.13 6.879,6.64 14.77,11.76 23.75,15.31 9.07,3.63 18.481,5.47 28.289,5.47 10.071,-0.12 19.571,-1.99 28.43,-5.62 8.949,-3.56 16.961,-8.83 24.07,-15.79 7.071,-6.87 12.422,-14.68 16.091,-23.43 3.63,-8.75 5.47,-17.89 5.47,-27.35 0,-9.92 -1.88,-19.18 -5.63,-27.81 -3.669,-8.67 -8.982,-16.37 -15.931,-23.12 -7.429,-7.11 -15.59,-12.43 -24.539,-15.94 -8.98,-3.63 -18.39,-5.39 -28.281,-5.31 -9.801,0 -19.18,1.83 -28.117,5.46 -8.992,3.52 -16.961,8.79 -23.91,15.79 -7.114,7.07 -12.461,14.92 -16.09,23.59 -3.563,8.63 -5.313,17.89 -5.313,27.81 z" /><path
         id="path36"
         style="fill:#000333;fill-opacity:1;fill-rule:nonzero;stroke:none"
         d="m 1038.4,1712.15 28.44,7.5 c 1.01,-9.61 4.45,-17.35 10.31,-23.28 5.82,-5.86 13.94,-9.69 24.37,-11.57 9.89,-1.79 18.21,-0.42 25,4.07 6.76,4.45 10.94,11.33 12.5,20.62 2.07,11.96 -6.01,24.3 -24.22,37.03 -2.5,1.96 -4.45,3.36 -5.78,4.22 -20.62,15 -33.9,27.58 -39.84,37.81 -5.94,10.2 -7.81,21.72 -5.63,34.54 2.9,16.64 10.94,29.14 24.07,37.5 13.2,8.32 28.94,10.93 47.18,7.81 15.08,-2.74 27.19,-7.93 36.25,-15.63 9.07,-7.61 14.61,-17.15 16.72,-28.59 l -28.28,-8.91 c -2.93,7.19 -6.56,12.66 -10.94,16.41 -4.37,3.83 -9.76,6.33 -16.09,7.5 -8.98,1.56 -16.48,0.47 -22.5,-3.28 -6.05,-3.75 -9.76,-9.53 -11.09,-17.35 -2.11,-12.18 7.5,-25.62 28.75,-40.31 1.44,-1.17 2.69,-2.03 3.75,-2.65 18.43,-12.82 30.62,-24.34 36.56,-34.54 6.02,-10.23 7.89,-21.99 5.62,-35.31 -3.43,-19.29 -12.26,-33.47 -26.4,-42.65 -14.06,-9.26 -31.49,-12.07 -52.19,-8.44 -17.5,3.05 -31.09,9.49 -40.78,19.37 -9.69,9.89 -14.96,22.58 -15.78,38.13 z" /><path
         id="path38"
         style="fill:#000333;fill-opacity:1;fill-rule:nonzero;stroke:none"
         d="m 1247.54,1692.54 c -4.69,-13.13 -5.24,-24.77 -1.56,-34.84 3.75,-10.12 10.97,-17.08 21.72,-20.94 10.93,-3.95 20.66,-3.36 29.21,1.72 8.64,5.11 15.39,14.37 20.32,27.81 4.76,13.32 5.35,24.84 1.72,34.53 -3.56,9.77 -10.75,16.64 -21.57,20.63 -11.05,3.82 -20.93,3.28 -29.68,-1.72 -8.75,-5 -15.47,-14.07 -20.16,-27.19 z m -72.19,-112.97 66.88,185.63 28.9,-10.47 -7.5,-20.47 c 6.25,6.76 13.83,10.97 22.82,12.65 8.94,1.76 18.63,0.79 29.06,-2.96 16.76,-6.06 28.12,-17.19 34.06,-33.44 6.02,-16.17 5.39,-34.3 -1.87,-54.38 -7.62,-21.25 -18.75,-36.09 -33.44,-44.53 -14.69,-8.51 -30.94,-9.57 -48.75,-3.12 -8.87,3.12 -16.1,7.73 -21.72,13.75 -5.63,6.05 -9.69,13.55 -12.19,22.5 l -27.34,-75.63 z" /><path
         id="path40"
         style="fill:#000333;fill-opacity:1;fill-rule:nonzero;stroke:none"
         d="m 1463.79,1515.39 -26.56,15.16 8.59,15 c -8.55,-3.83 -16.95,-5.55 -25.16,-5.16 -8.12,0.31 -16.32,2.89 -24.53,7.66 -16.48,9.37 -26.21,22.46 -29.22,39.22 -2.93,16.64 1.18,34.72 12.35,54.21 10.7,18.52 24.14,30.71 40.31,36.57 16.25,5.93 32.19,4.41 47.81,-4.53 9.46,-5.43 16.41,-12.11 20.78,-20 4.46,-7.82 6.14,-16.37 5,-25.63 l 10.94,19.06 26.56,-15.15 z m 7.81,73.44 c 6.95,12.07 9.57,23.05 7.81,32.97 -1.79,9.88 -7.73,17.69 -17.81,23.43 -10,5.82 -19.92,6.92 -29.69,3.29 -9.68,-3.68 -18.08,-11.64 -25.15,-23.91 -7.11,-12.31 -9.81,-23.4 -8.13,-33.28 1.76,-9.88 7.74,-17.74 17.97,-23.6 9.45,-5.5 19.3,-6.32 29.53,-2.5 10.2,3.87 18.67,11.72 25.47,23.6 z" /><path
         id="path42"
         style="fill:#000333;fill-opacity:1;fill-rule:nonzero;stroke:none"
         d="m 1591.88,1559.26 c 7.89,5 15.35,7.5 22.34,7.5 6.95,0 13.63,-2.5 20,-7.5 3.32,-2.62 6.29,-5.63 8.9,-9.06 2.7,-3.36 5.04,-7.04 7.04,-11.1 l -24.85,-13.9 c -0.86,3.2 -2.19,6.13 -4.06,8.75 -1.87,2.57 -4.3,5.07 -7.19,7.5 -8.04,6.25 -16.33,7.5 -24.84,3.75 -8.56,-3.75 -18.75,-13.21 -30.63,-28.29 l -36.4,-46.4 -24.22,19.06 82.97,105.78 24.22,-19.06 z" /><path
         id="path44"
         style="fill:#000333;fill-opacity:1;fill-rule:nonzero;stroke:none"
         d="m 1581.41,1422.38 157.18,153.28 21.41,-22.03 -100.94,-98.43 79.06,-1.25 26.57,-27.19 -84.85,2.03 -7.18,-100 -27.66,28.28 7.34,91.56 -49.53,-48.28 z" /><path
         id="path46"
         style="fill:#000333;fill-opacity:1;fill-rule:nonzero;stroke:none"
         d="m 1693.52,1339.41 26.25,-12.18 c -4.38,-5.63 -6.53,-11.49 -6.41,-17.66 0.19,-6.13 2.69,-12.42 7.5,-18.91 4.06,-5.62 8.52,-9.06 13.44,-10.31 4.88,-1.33 9.57,-0.39 14.06,2.81 5.82,4.3 6.72,13.56 2.66,27.82 -1.49,4.92 -2.5,8.71 -3.13,11.4 -3.67,15.08 -4.69,26.76 -3.12,35 1.56,8.21 5.93,15 13.12,20.32 9.69,6.95 20.31,8.82 31.88,5.62 11.56,-3.12 21.87,-10.94 30.93,-23.44 6.14,-8.36 9.85,-16.68 11.1,-25 1.32,-8.2 0.15,-15.82 -3.6,-22.81 l -25,8.75 c 2.5,3.98 3.6,8.28 3.28,12.97 -0.31,4.69 -2.1,9.14 -5.31,13.44 -3.44,4.68 -7.34,7.65 -11.72,8.9 -4.29,1.25 -8.28,0.47 -12.03,-2.34 -5.62,-4.18 -6.09,-14.34 -1.4,-30.47 1.56,-5.08 2.69,-9.06 3.43,-11.87 3.32,-12.9 4.07,-23.33 2.19,-31.25 -1.8,-8.01 -6.41,-14.77 -13.91,-20.32 -10.74,-7.81 -22.11,-10.04 -34.06,-6.72 -11.87,3.36 -22.89,11.96 -32.97,25.79 -7.73,10.54 -12.15,20.78 -13.28,30.78 -1.17,9.92 0.86,19.8 6.1,29.68 z" /></g></g></svg>